<svg xmlns="http://www.w3.org/2000/svg" viewBox="0 0 498.884 498.884"><path d="M237.324 31.634a4.25 4.25 0 100-8.5c-117.726 0-213.505 95.778-213.505 213.506a4.25 4.25 0 108.5 0c0-113.041 91.965-205.006 205.005-205.006zM237.324 83.773a4.25 4.25 0 100 8.5c79.604 0 144.367 64.763 144.367 144.367a4.25 4.25 0 108.5 0c0-84.291-68.576-152.867-152.867-152.867zM237.324 149.318c-48.149 0-87.321 39.172-87.321 87.321a4.25 4.25 0 108.5 0c0-43.462 35.359-78.821 78.821-78.821a4.25 4.25 0 100-8.5z"/><path d="M496.954 427.234l-61.368-61.37c25.113-38.778 38.377-83.383 38.377-129.225 0-63.208-24.615-122.634-69.311-167.329C359.957 24.615 300.532 0 237.324 0S114.69 24.615 69.994 69.311C25.299 114.006.684 173.431.684 236.64s24.615 122.634 69.311 167.329c44.695 44.695 104.12 69.31 167.329 69.31 44.999 0 88.971-12.956 127.384-37.485l61.846 61.845a4.25 4.25 0 007.138-2.017l11.82-49.428 49.426-11.821a4.25 4.25 0 002.016-7.139zm-108.062 20.724l10.107-42.267 20.721 20.721-10.107 42.266-20.721-20.72zm-20.9-20.9l10.109-42.265 13.845 13.845-10.107 42.266-13.847-13.846zm-36.079-124.757c13.298-19.301 20.598-42.469 20.598-65.661 0-63.514-51.673-115.187-115.188-115.187-63.514 0-115.186 51.673-115.186 115.187 0 63.514 51.673 115.187 115.186 115.187 22.934 0 45.007-6.723 64.077-19.452l39.836 39.836c-29.853 22.766-66.564 35.259-103.913 35.259-94.196 0-170.83-76.634-170.83-170.831s76.634-170.831 170.83-170.831 170.831 76.634 170.831 170.831c0 37.775-12.916 75.041-36.448 105.455l-39.793-39.793zm-106.964-52.39a4.25 4.25 0 000 6.011l15.691 15.69c-1.151.128-2.282.21-3.316.21-19.399 0-35.183-15.783-35.183-35.183s15.783-35.183 35.183-35.183 35.183 15.783 35.183 35.183c0 1.699-.201 3.666-.556 5.698l-16.709-16.71a4.25 4.25 0 00-6.01 0l-24.283 24.284zm12.375-56.954c-24.087 0-43.683 19.596-43.683 43.683s19.596 43.683 43.683 43.683c3.55 0 7.509-.629 10.669-1.357l47.272 47.273c-17.342 11.188-37.267 17.088-57.941 17.088-58.827 0-106.686-47.859-106.686-106.687 0-58.828 47.859-106.687 106.686-106.687 58.828 0 106.688 47.859 106.688 106.687 0 20.964-6.444 41.917-18.214 59.545l-46.767-46.767c1.247-4.348 1.976-8.97 1.976-12.778-.001-24.087-19.596-43.683-43.683-43.683zm-3.36 59.96l4.009-4.009 99.747 99.746a4.234 4.234 0 003.005 1.245 4.25 4.25 0 003.005-7.256l-99.746-99.746 8.253-8.253 134.718 134.72-12.208 2.92c-.025.006-.042.016-.066.022-.033.009-.067.012-.101.021a4.253 4.253 0 00-2.979 3.101l-2.92 12.207-134.717-134.718zm150.148 125.866l42.264-10.108 30.852 30.852-42.265 10.107-30.851-30.851zM9.184 236.64C9.184 110.843 111.527 8.5 237.324 8.5s228.14 102.343 228.14 228.14c0 43.718-12.513 86.278-36.227 123.393a4.23 4.23 0 00-2.525-.178l-30.057 7.188-18.888-18.889c25.102-32.054 38.888-71.505 38.888-111.515 0-98.883-80.447-179.331-179.331-179.331-98.883 0-179.33 80.447-179.33 179.331s80.447 179.331 179.33 179.331c39.588 0 78.491-13.36 109.982-37.692l19.056 19.056-7.189 30.059a4.249 4.249 0 00-.017 1.867c-36.811 23.25-78.842 35.518-121.831 35.518C111.527 464.779 9.184 362.436 9.184 236.64zm418.008 249.617l-10.525-10.525 10.107-42.266 10.524 10.525-10.106 42.266zm16.117-48.276l-21.294-21.294 42.265-10.108 21.293 21.294-42.264 10.108z"/></svg>