<svg xmlns="http://www.w3.org/2000/svg" viewBox="0 0 479.5 479.5"><path d="M272.801 145.529c8.458-.57 32.679-.313 43.002 7.618.044.034.092.057.137.088 9.027 7.503 20.617 12.023 33.244 12.023 12.266 0 23.742-4.339 32.785-11.669.083-.053.17-.096.25-.155 13.814-10.174 47.338-7.931 47.676-7.907a4.244 4.244 0 004.491-3.528c5.505-32.438-6.852-60.372-35.733-80.778-21.035-14.863-43.286-20.498-44.946-20.904-2.072-.562-5.898-1.156-8.378-1.156-7.509 0-12.494 3.419-16.082 7.067a22.568 22.568 0 00-7.11-1.149c-6.022 0-11.696 2.297-15.997 6.471-3.397 2.889-49.91 43.518-37.74 90.798.509 1.982 2.333 3.333 4.401 3.181zm32.799-32.353c0-11.833 4.769-23.012 13.172-31.197 13.291 12.684 40.463 35.353 72.197 43.619-5.423 18.262-22.432 31.161-41.785 31.161-24.033 0-43.584-19.551-43.584-43.583zm6.134-55.226c.086-.072.168-.147.247-.225a14.385 14.385 0 0110.154-4.146c2.213 0 4.358.507 6.377 1.506a4.24 4.24 0 005.122-1.073l.01.008c3.817-4.517 7.202-6.359 11.684-6.359 1.505 0 4.627.438 6.185.868l.134.035c.22.053 22.219 5.489 42.291 19.735 25.139 17.841 36.099 40.895 32.617 68.565-6.566-.205-20.158-.177-32.477 2.685a51.53 51.53 0 005.208-12.146c4.229.729 8.521 1.183 12.857 1.296l.113.001a4.249 4.249 0 004.246-4.139 4.25 4.25 0 00-4.137-4.36c-49.567-1.301-95.435-52.173-95.893-52.687a4.25 4.25 0 00-6.351 5.65c.238.268 1.14 1.271 2.626 2.82-9.984 9.772-15.648 23.092-15.648 37.191 0 9.523 2.582 18.45 7.063 26.139-10.858-2.463-22.498-2.565-28.279-2.42-7.929-41.482 35.403-78.566 35.851-78.944z"/><path d="M463.25 310.746c8.96 0 16.25-7.29 16.25-16.25v-274c0-8.961-7.29-16.25-16.25-16.25h-447C7.29 4.246 0 11.536 0 20.496v274c0 8.96 7.29 16.25 16.25 16.25h244.447l-2.102 7.169H16.25c-8.96 0-16.25 7.29-16.25 16.25v4c0 8.961 7.29 16.25 16.25 16.25h231.643l-.645 2.199a4.248 4.248 0 004.078 5.446h42.189v87.467c0 14.186 11.542 25.728 25.729 25.728s25.728-11.542 25.728-25.728V362.06h8.393v87.467c0 14.186 11.542 25.728 25.729 25.728 14.186 0 25.728-11.542 25.728-25.728V362.06h42.189a4.247 4.247 0 004.078-5.446l-.645-2.199h12.805c8.96 0 16.25-7.289 16.25-16.25v-4c0-8.96-7.29-16.25-16.25-16.25h-23.504l-2.102-7.169h25.607zm-447-8.5c-4.273 0-7.75-3.477-7.75-7.75v-274c0-4.273 3.477-7.75 7.75-7.75h447c4.273 0 7.75 3.477 7.75 7.75v153.909h-42.722a4.25 4.25 0 100 8.5H471v111.591c0 4.273-3.477 7.75-7.75 7.75h-28.098l-4.678-15.955a22.656 22.656 0 0012.445 3.72c5.702 0 11.41-2.133 15.809-6.416 8.953-8.719 9.144-23.097.429-32.047l-64.321-66.135c-.14-.143.154.12 0 0-11.1-11.285-27.898-18.568-45.652-18.568-9.97 0-19.583 2.238-28.039 6.177-.017.006.018-.007 0 0l-45.04 16.983-9.659-27.001c-4.33-12.043-17.681-18.307-29.76-13.964-5.834 2.097-10.491 6.34-13.115 11.947-2.618 5.594-2.905 11.889-.81 17.718l17.484 48.876.028.081c3.388 9.423 12.315 15.298 21.819 15.297 2.604 0 5.255-.441 7.844-1.372l12.333-4.408-19.08 65.068H16.25zm409.509-32.043l-17.134-58.451 44.44 45.723c5.448 5.596 5.329 14.582-.266 20.03-5.595 5.449-14.581 5.33-20.053-.289l-6.689-6.768c-.093-.093-.2-.162-.298-.245zm-134.3-64.365l-6.232 21.256-18.158 6.49c-7.599 2.73-15.986-1.167-18.763-8.707a4.069 4.069 0 00-.103-.288l-17.441-48.754c-1.332-3.706-1.152-7.7.507-11.245a14.504 14.504 0 018.293-7.551c7.665-2.761 16.141 1.208 18.883 8.834l11.112 31.065a4.252 4.252 0 005.502 2.545l24.195-9.125c-3.543 4.679-6.22 9.89-7.795 15.48zM16.25 345.915c-4.273 0-7.75-3.476-7.75-7.75v-4c0-4.273 3.477-7.75 7.75-7.75h239.853l-5.719 19.5H16.25zm320.222 103.611c0 9.5-7.729 17.228-17.228 17.228-.936 0-1.848-.096-2.744-.24v-28.018a4.25 4.25 0 10-8.5 0v24.054c-3.657-3.162-5.984-7.822-5.984-13.024V362.06h34.456v87.466zm59.85 0c0 6.309-3.419 11.82-8.491 14.822v-60.852a4.25 4.25 0 10-8.5 0v63.246c-.08.001-.157.012-.237.012-9.5 0-17.229-7.728-17.229-17.228V362.06h34.457v87.466zM257.001 353.56l4.429-15.105a4.215 4.215 0 001.856.443h97.495a4.25 4.25 0 100-8.5h-96.988l35.835-122.211c3.301-11.716 12.474-21.448 24.483-27.203l.007-.003c.033-.013.061-.033.094-.046 7.474-3.563 16.036-5.59 24.972-5.59 23.289 0 44.124 13.817 49.551 32.886l18.215 62.137h-38.59a4.25 4.25 0 100 8.5h41.082l8.292 28.286c.06.385.165.753.321 1.096l13.282 45.311H257.001zm206.249-27.145c4.273 0 7.75 3.477 7.75 7.75v4c0 4.274-3.477 7.75-7.75 7.75h-15.297l-5.716-19.5h21.013z"/><path d="M86.25 163.746c28.26 0 51.25-22.991 51.25-51.25s-22.99-51.25-51.25-51.25S35 84.237 35 112.496s22.99 51.25 51.25 51.25zm-42.164-44.23l37.588-3.264.408 38.788c-19.291-1.876-34.859-16.625-37.996-35.524zm46.496 35.511l-.375-35.682 30.161 18.874c-6.99 9.249-17.644 15.581-29.786 16.808zM129 112.496c0 6.611-1.51 12.876-4.2 18.47l-33.101-20.713 19.771-32.246C122.088 85.793 129 98.35 129 112.496zm-42.75-42.75a42.49 42.49 0 0117.897 3.941l-20.775 33.885-39.835 3.459c.776-22.895 19.632-41.285 42.713-41.285zM38.333 199.163a4.25 4.25 0 004.25 4.25h126a4.25 4.25 0 100-8.5h-126a4.25 4.25 0 00-4.25 4.25zM201.25 226.913H42.583a4.25 4.25 0 100 8.5H201.25a4.25 4.25 0 100-8.5zM97.917 256.913H42.583a4.25 4.25 0 100 8.5h55.334a4.25 4.25 0 100-8.5z"/></svg>