<svg xmlns="http://www.w3.org/2000/svg" viewBox="0 0 491.148 491.148"><path d="M216.396 252.217c-11.836 0-21.466 9.63-21.466 21.467 0 11.836 9.629 21.466 21.466 21.466 11.837 0 21.467-9.629 21.467-21.466-.001-11.837-9.631-21.467-21.467-21.467zm0 34.432c-7.149 0-12.966-5.816-12.966-12.966 0-7.15 5.816-12.967 12.966-12.967 7.15 0 12.967 5.817 12.967 12.967-.001 7.15-5.818 12.966-12.967 12.966z"/><path d="M464.13 197.664h-32.585V30.074C431.545 13.491 418.054 0 401.472 0H31.324C14.741 0 1.25 13.491 1.25 30.074v265.883c0 16.583 13.491 30.074 30.074 30.074h129.511l-15.448 59.592h-1.221c-12.84 0-23.286 10.447-23.286 23.288v17.303a4.25 4.25 0 004.25 4.25h182.535a4.25 4.25 0 004.25-4.25v-17.303c0-12.841-10.447-23.288-23.289-23.288h-1.22l-15.449-59.592h48.057V465.38c0 14.209 11.56 25.768 25.769 25.768H464.13c14.209 0 25.768-11.56 25.768-25.77V223.433c0-14.209-11.559-25.769-25.768-25.769zm-135.616 30.02l152.885-.001v201.443H328.514V227.684zm152.334-8.501l-151.783.001c1.901-7.47 8.665-13.02 16.718-13.02H464.13c8.053 0 14.816 5.549 16.718 13.019zm-135.066-21.519c-14.209 0-25.769 11.56-25.769 25.77v10.321H9.75V33.16h413.295v164.504h-77.263zM31.324 8.5h370.147c10.023 0 18.446 6.881 20.858 16.16H10.465C12.877 15.381 21.301 8.5 31.324 8.5zm272.091 400.411v13.053H129.38v-13.053c0-8.154 6.633-14.788 14.786-14.788h144.46c8.155 0 14.789 6.634 14.789 14.788zm-24.789-23.288H154.169l15.448-59.592h93.56l15.449 59.592zM31.324 317.531c-11.896 0-21.574-9.678-21.574-21.574v-26.31h65.618a4.25 4.25 0 000-8.5H9.75v-18.893h310.264v75.276H31.324zM464.13 482.648H345.782c-9.522 0-17.269-7.747-17.269-17.268v-8.548h40.037a4.25 4.25 0 000-8.5h-40.037v-10.706h152.885v27.753c0 9.522-7.746 17.269-17.268 17.269z"/><path d="M404.956 443.603c-8.596 0-15.59 6.995-15.59 15.592 0 8.596 6.994 15.59 15.59 15.59 8.597 0 15.592-6.994 15.592-15.591s-6.995-15.591-15.592-15.591zm0 22.681c-3.909 0-7.09-3.181-7.09-7.09 0-3.911 3.181-7.092 7.09-7.092 3.911 0 7.092 3.181 7.092 7.091s-3.181 7.091-7.092 7.091zM459.369 250.47h-41.718a4.25 4.25 0 00-4.25 4.25v38.465a4.25 4.25 0 004.25 4.25h41.718a4.25 4.25 0 004.25-4.25V254.72a4.25 4.25 0 00-4.25-4.25zm-4.25 38.465h-33.218V258.97h33.218v29.965zM353.478 297.435h41.745a4.25 4.25 0 004.25-4.25V254.72a4.25 4.25 0 00-4.25-4.25h-41.745a4.25 4.25 0 00-4.25 4.25v38.465a4.25 4.25 0 004.25 4.25zm4.25-38.465h33.245v29.965h-33.245V258.97zM459.369 310.397H353.478a4.25 4.25 0 00-4.25 4.25v33.789a4.25 4.25 0 004.25 4.25H459.37a4.25 4.25 0 004.25-4.25v-33.789a4.252 4.252 0 00-4.251-4.25zm-4.25 33.79h-97.392v-25.289h97.392v25.289zM459.369 365.99H353.478a4.25 4.25 0 000 8.5H459.37a4.25 4.25 0 10-.001-8.5zM459.369 384.387H353.478a4.25 4.25 0 000 8.5H459.37a4.25 4.25 0 10-.001-8.5zM390.106 48.02h-229a4.25 4.25 0 00-4.25 4.25v46a4.25 4.25 0 004.25 4.25h229a4.25 4.25 0 004.25-4.25v-46a4.249 4.249 0 00-4.25-4.25zm-4.25 46h-220.5v-37.5h220.5v37.5zM43.106 102.52h86a4.25 4.25 0 004.25-4.25v-46a4.25 4.25 0 00-4.25-4.25h-86a4.25 4.25 0 00-4.25 4.25v46a4.25 4.25 0 004.25 4.25zm4.25-46h77.5v37.5h-77.5v-37.5zM390.106 119.687h-347a4.25 4.25 0 00-4.25 4.25v20.067a4.25 4.25 0 004.25 4.25h347a4.25 4.25 0 004.25-4.25v-20.067a4.249 4.249 0 00-4.25-4.25zm-4.25 20.067h-338.5v-11.567h338.5v11.567zM125.106 165.828h-82a4.25 4.25 0 000 8.5h82a4.25 4.25 0 000-8.5zM125.106 187.828h-82a4.25 4.25 0 000 8.5h82a4.25 4.25 0 000-8.5zM389.115 165.828H162.17a4.25 4.25 0 000 8.5h226.945a4.25 4.25 0 000-8.5zM250.106 187.828H162.17a4.25 4.25 0 000 8.5h87.936a4.25 4.25 0 000-8.5z"/></svg>