<svg xmlns="http://www.w3.org/2000/svg" viewBox="0 0 490.696 490.696"><path d="M245.346 334.125c-11.581 0-21.003 9.421-21.003 21.002s9.422 21.003 21.003 21.003 21.003-9.422 21.003-21.003-9.422-21.002-21.003-21.002zm0 33.505c-6.894 0-12.503-5.609-12.503-12.503s5.609-12.502 12.503-12.502 12.503 5.608 12.503 12.502c0 6.894-5.608 12.503-12.503 12.503z"/><path d="M425.439 88.698h-126.44c-10.762-42.878-29.075-75.5-51.567-88.152a4.248 4.248 0 00-4.167 0c-22.492 12.652-40.806 45.273-51.567 88.152H65.257c-16.199 0-29.378 13.18-29.378 29.379v258.724c0 16.2 13.179 29.379 29.378 29.379h125.397l-14.222 40.653h-1.372c-12.557 0-22.773 10.217-22.773 22.776v16.837a4.25 4.25 0 004.25 4.25h177.62a4.25 4.25 0 004.25-4.25v-16.837c0-12.559-10.217-22.776-22.776-22.776h-1.37l-14.222-40.653h125.399c16.199 0 29.378-13.179 29.378-29.379V118.077c.001-16.2-13.178-29.379-29.377-29.379zm0 8.5c11.512 0 20.878 9.367 20.878 20.879v31.394H370.93a4.25 4.25 0 000 8.5h75.387v152.813H427.87a41.58 41.58 0 00-11.864-25.079 39.18 39.18 0 00-25.132-34.749c-6.712-12.938-20.195-21.2-34.849-21.201-3.989 0-7.888.602-11.645 1.774-6.599-21.575-18.451-41.3-34.911-57.682-.318-27.284-3.304-53.311-8.462-76.65h124.432zM181.28 186.179c.396 22.5 2.584 44.293 6.523 64.917a70.003 70.003 0 00-11.626 27.503H148.91a115.52 115.52 0 01-.169-6.132c-.001-32.167 11.487-62.432 32.539-86.288zm128.136 0c21.051 23.856 32.539 54.12 32.539 86.289 0 1.947-.055 3.951-.169 6.132H314.52a70.018 70.018 0 00-11.626-27.503c3.938-20.625 6.126-42.418 6.522-64.918zm-2.181 105.374c0 .276-.002.555-.007.837H183.469a47.262 47.262 0 01-.007-.837c0-34.125 27.762-61.887 61.887-61.887s61.886 27.763 61.886 61.887zm-166.546-8.38a4.25 4.25 0 004.238 3.927h30.19a70.609 70.609 0 00-.156 4.453c0 1.642.074 3.411.226 5.41a4.25 4.25 0 004.238 3.927h131.846a4.25 4.25 0 004.238-3.927c.152-1.999.226-3.768.226-5.41 0-1.497-.063-2.979-.156-4.453h30.19a4.25 4.25 0 004.238-3.927c.302-3.97.449-7.471.449-10.705 0-11.184-1.313-22.15-3.848-32.735a30.515 30.515 0 019.417-1.478c11.957.001 22.922 7.026 27.933 17.9a4.25 4.25 0 002.523 2.255 30.701 30.701 0 0121.07 29.15 4.25 4.25 0 001.374 3.124 33.043 33.043 0 0110.381 20.099H69.276c.981-7.657 4.637-14.819 10.381-20.099a4.255 4.255 0 001.374-3.124 30.702 30.702 0 0121.069-29.15 4.25 4.25 0 002.523-2.255c5.011-10.874 15.976-17.899 27.933-17.9 3.926 0 7.741.739 11.361 2.185a140.494 140.494 0 00-3.678 32.029c.001 3.233.148 6.734.45 10.704zM245.348 9.202c15.087 9.599 28.812 30.52 38.836 59.301C295.186 100.091 301 138.202 301 178.716c0 22.079-1.744 43.511-5.188 63.842-12.799-13.18-30.686-21.392-50.465-21.392-19.779 0-37.667 8.212-50.465 21.392-3.444-20.331-5.188-41.763-5.188-63.842 0-40.515 5.815-78.625 16.816-110.213 10.026-28.781 23.751-49.701 38.838-59.301zM65.257 97.198h124.432c-5.158 23.339-8.143 49.366-8.462 76.65-16.626 16.548-28.546 36.507-35.104 58.337a38.928 38.928 0 00-13.566-2.43c-14.654.001-28.137 8.263-34.849 21.201a39.178 39.178 0 00-25.131 34.749 41.591 41.591 0 00-11.864 25.079H44.379V139.971h89.563a4.25 4.25 0 000-8.5H44.379v-13.395c0-11.512 9.366-20.878 20.878-20.878zm264.651 372.411v12.587h-169.12v-12.587c0-7.872 6.403-14.276 14.273-14.276h140.57c7.873 0 14.277 6.404 14.277 14.276zm-24.652-22.776H185.438l14.222-40.653h91.374l14.222 40.653zm120.183-49.154H65.257c-11.512 0-20.878-9.366-20.878-20.879v-25.486h63.737a4.25 4.25 0 000-8.5H44.379v-23.531h401.938V376.8c0 11.513-9.366 20.879-20.878 20.879z"/><path d="M245.348 112.72c13.274 0 24.074-10.8 24.074-24.074 0-13.274-10.8-24.074-24.074-24.074-13.274 0-24.074 10.799-24.074 24.074 0 13.275 10.8 24.074 24.074 24.074zm0-39.647c8.587 0 15.574 6.986 15.574 15.574s-6.987 15.574-15.574 15.574-15.574-6.987-15.574-15.574 6.987-15.574 15.574-15.574z"/></svg>