<svg xmlns="http://www.w3.org/2000/svg" viewBox="0 0 479.115 479.115"><path d="M342.932 127.019c24.785 0 44.949-20.164 44.949-44.95 0-24.785-20.164-44.95-44.949-44.95-24.785 0-44.949 20.165-44.949 44.95 0 24.786 20.164 44.95 44.949 44.95zm0-81.399c20.098 0 36.449 16.351 36.449 36.45 0 20.099-16.351 36.45-36.449 36.45s-36.449-16.352-36.449-36.45c0-20.099 16.351-36.45 36.449-36.45zM377.392 300.797a4.25 4.25 0 00-4.25 4.25v31.498a4.25 4.25 0 008.5 0v-31.498a4.25 4.25 0 00-4.25-4.25z"/><path d="M444.937 264.058c.467 0-.421.139 0 0 3.534 2.067 7.493 3 11.456 3 6.034 0 12.059-2.383 16.522-7.104 8.607-9.104 8.202-23.516-.898-32.122l-14.16-13.425V16.562c0-7.857-6.392-14.25-14.25-14.25H21c-7.857 0-14.25 6.393-14.25 14.25v233.362c0 7.857 6.393 14.25 14.25 14.25h262.119v10.998H14.25c-7.857 0-14.25 6.393-14.25 14.25v10.124c0 7.857 6.393 14.25 14.25 14.25h268.87v135.396c0 15.224 12.386 27.61 27.611 27.61s27.61-12.386 27.61-27.61l-.001-114.618c3.157.293 6.029.293 9.184 0l.001 114.617c0 15.224 12.386 27.61 27.611 27.61 15.224 0 27.609-12.386 27.609-27.61V313.795h47.612c7.858 0 14.25-6.393 14.25-14.25v-10.124c0-7.857-6.392-14.25-14.25-14.25h-47.612v-10.998l42.192-.115zm-42.192-39.27l32.577 30.887h-32.577v-30.887zm63.994 29.327c-5.391 5.7-14.412 5.954-20.105.571l-43.889-41.611v-37.852c0-.446-.037-.887-.059-1.329l63.487 60.111c5.699 5.389 5.953 14.411.566 20.11zM15.25 249.924V238.8h141.694a4.25 4.25 0 000-8.5H15.25V16.562c0-3.17 2.58-5.75 5.75-5.75h422.607c3.171 0 5.75 2.58 5.75 5.75V29.31h-68.925a4.25 4.25 0 000 8.5h68.925v168.539l-59.124-56.043c-.064-.061.079.067 0 0-.012-.01.012.01 0 0-12.694-11.794-32.554-19.353-47.301-19.353-15.578 0-36.897 8.476-49.425 21.439-.106.092.098-.105 0 0l-45.863 49.038-33.669-31.427c-9.106-8.609-23.518-8.204-32.124.902a22.58 22.58 0 00-6.203 16.25c.17 6.068 2.693 11.707 7.128 15.898l50.512 47.026c3.124 2.924 6.874 4.771 10.795 5.594H21a5.755 5.755 0 01-5.75-5.749zm267.869-74.222v41.953l-23.966 25.583c-5.369 5.677-14.366 5.962-20.065.628l-50.497-47.012a14.126 14.126 0 01-4.447-9.937 14.137 14.137 0 013.883-10.173c5.387-5.7 14.408-5.953 20.128-.546l36.793 34.344a4.249 4.249 0 006.005-.205l32.166-34.635zm-29.596 79.972a22.652 22.652 0 0011.82-6.611l17.777-18.976v25.586h-29.597zM14.25 305.297c-3.17 0-5.75-2.58-5.75-5.75v-10.124c0-3.17 2.58-5.75 5.75-5.75h268.869v21.624H14.25zm367.392 161.841v-97.594a4.25 4.25 0 00-8.5 0v98.654c-9.604-1-17.117-9.141-17.117-19.004l-.001-119.481a4.248 4.248 0 00-4.25-4.25c-.247 0-.496.022-.743.065-2.869.51-5.593.768-8.097.768s-5.229-.259-8.1-.769a4.248 4.248 0 00-4.994 4.184l.001 119.482c0 9.972-7.681 18.173-17.435 19.025v-50.851a4.25 4.25 0 00-8.5 0v49.654c-7.173-2.756-12.286-9.698-12.286-17.828l-.001-273.971c0-19.399 31.518-35.769 51.313-35.769s51.313 16.37 51.313 35.769l.001 273.971c0 8.25-5.265 15.275-12.604 17.945zm68.715-183.465c3.171 0 5.75 2.58 5.75 5.75v10.124c0 3.17-2.579 5.75-5.75 5.75h-47.612v-21.624h47.612z"/><path d="M59.822 93.617h188a4.25 4.25 0 000-8.5h-188a4.25 4.25 0 000 8.5zM252.072 129.867a4.25 4.25 0 00-4.25-4.25h-188a4.25 4.25 0 000 8.5h188a4.25 4.25 0 004.25-4.25zM139.822 166.117h-80a4.25 4.25 0 000 8.5h80a4.25 4.25 0 000-8.5z"/></svg>